<svg t="1706678263123" class="icon" viewBox="0 0 1024 1024" version="1.1" xmlns="http://www.w3.org/2000/svg" p-id="4544" width="26" height="26"><path d="M768 256a85.333333 85.333333 0 0 1 85.333333 85.333333v512a85.333333 85.333333 0 0 1-85.333333 85.333334h-341.333333a85.333333 85.333333 0 0 1-85.333334-85.333334V341.333333a85.333333 85.333333 0 0 1 85.333334-85.333333h341.333333z m0 85.333333h-341.333333v512h341.333333V341.333333z m-128-256a42.666667 42.666667 0 0 1 42.666667 42.666667l-0.042667 42.666667H256l-0.042667 597.333333H213.333333a42.666667 42.666667 0 0 1-42.666666-42.666667V170.666667a85.333333 85.333333 0 0 1 85.333333-85.333334h384z" fill="#8a8a8a" p-id="4545"></path></svg>