<svg xmlns="http://www.w3.org/2000/svg" width="36" height="35" viewBox="0 0 36 35" fill="none">
  <path d="M25.1814 10.4728L34.4487 11.8871C35.9438 12.1152 36.5282 13.9587 35.4377 15.0066L28.6781 21.502C28.4648 21.707 28.3045 21.9607 28.2111 22.2414C28.1176 22.5222 28.0938 22.8214 28.1418 23.1133L29.6604 32.364C29.9054 33.8564 28.3328 34.9819 26.9992 34.2686L18.7329 29.847C18.472 29.7075 18.1812 29.6335 17.8853 29.6314C17.5895 29.6293 17.2976 29.6991 17.0348 29.8349L8.70606 34.1378C7.36242 34.832 5.80602 33.6842 6.07233 32.1954L7.72306 22.9674C7.77515 22.6762 7.75566 22.3766 7.66625 22.0946C7.57685 21.8126 7.42021 21.5566 7.20985 21.3486L0.543799 14.7572C-0.531631 13.6938 0.0791387 11.8589 1.57729 11.6521L10.8638 10.3704C11.1569 10.33 11.4357 10.2189 11.6763 10.0467C11.9169 9.87453 12.112 9.64643 12.2448 9.38208L16.4536 1.00547C17.1326 -0.345898 19.0665 -0.332082 19.7261 1.02885L23.8147 9.46477C23.9438 9.731 24.1356 9.96186 24.3737 10.1375C24.6118 10.3131 24.889 10.4281 25.1814 10.4728Z" fill="#FFAC03"/>
</svg>